<svg xmlns="http://www.w3.org/2000/svg" width="20" height="20" viewBox="0 0 20 20" fill="none">
  <path d="M10.0014 9.88783C10.4161 9.88783 10.7706 9.74019 11.0649 9.44492C11.3592 9.14964 11.5064 8.79467 11.5064 8.38002C11.5064 7.96537 11.3588 7.61087 11.0635 7.31654C10.7682 7.02221 10.4132 6.87504 9.99859 6.87504C9.58393 6.87504 9.22944 7.02268 8.93511 7.31796C8.64077 7.61323 8.49361 7.9682 8.49361 8.38285C8.49361 8.79751 8.64125 9.152 8.93652 9.44633C9.2318 9.74067 9.58677 9.88783 10.0014 9.88783ZM10 16.2612C11.6303 14.8019 12.8779 13.402 13.7428 12.0617C14.6076 10.7215 15.0401 9.54757 15.0401 8.54008C15.0401 7.02086 14.5574 5.77193 13.5921 4.79329C12.6269 3.81465 11.4295 3.32533 10 3.32533C8.57052 3.32533 7.37313 3.81465 6.40786 4.79329C5.44258 5.77193 4.95994 7.02086 4.95994 8.54008C4.95994 9.54757 5.39236 10.7215 6.25721 12.0617C7.12207 13.402 8.36967 14.8019 10 16.2612ZM10 17.9247C7.90279 16.1074 6.33015 14.4161 5.28207 12.851C4.234 11.2858 3.70996 9.84885 3.70996 8.54008C3.70996 6.61703 4.33202 5.06015 5.57615 3.86944C6.82026 2.67873 8.29488 2.08337 10 2.08337C11.7051 2.08337 13.1797 2.67873 14.4239 3.86944C15.668 5.06015 16.29 6.61703 16.29 8.54008C16.29 9.84885 15.766 11.2858 14.7179 12.851C13.6699 14.4161 12.0972 16.1074 10 17.9247Z" fill="white"/>
</svg>