<svg width="20" height="21" viewBox="0 0 20 21" fill="none" xmlns="http://www.w3.org/2000/svg">
<g id="Icon/person">
<path id="Vector" d="M10 10.2435C9.19793 10.2435 8.51131 9.95797 7.94013 9.3868C7.36895 8.81562 7.08336 8.12899 7.08336 7.32692C7.08336 6.52484 7.36895 5.83822 7.94013 5.26705C8.51131 4.69587 9.19793 4.41028 10 4.41028C10.8021 4.41028 11.4887 4.69587 12.0599 5.26705C12.6311 5.83822 12.9166 6.52484 12.9166 7.32692C12.9166 8.12899 12.6311 8.81562 12.0599 9.3868C11.4887 9.95797 10.8021 10.2435 10 10.2435ZM3.75002 16.5897V14.7372C3.75002 14.329 3.86087 13.9511 4.08256 13.6034C4.30424 13.2556 4.60045 12.9883 4.97117 12.8013C5.79489 12.3974 6.62582 12.0945 7.46396 11.8926C8.3021 11.6907 9.14745 11.5898 10 11.5898C10.8526 11.5898 11.6979 11.6907 12.536 11.8926C13.3742 12.0945 14.2051 12.3974 15.0288 12.8013C15.3996 12.9883 15.6958 13.2556 15.9174 13.6034C16.1391 13.9511 16.25 14.329 16.25 14.7372V16.5897H3.75002ZM5 15.3397H15V14.7372C15 14.5683 14.9511 14.4121 14.8534 14.2684C14.7556 14.1247 14.6229 14.0075 14.4551 13.9166C13.7372 13.563 13.0051 13.2951 12.2589 13.1129C11.5127 12.9308 10.7598 12.8397 10 12.8397C9.24025 12.8397 8.48728 12.9308 7.74109 13.1129C6.99489 13.2951 6.26282 13.563 5.54488 13.9166C5.37714 14.0075 5.2444 14.1247 5.14665 14.2684C5.04888 14.4121 5 14.5683 5 14.7372V15.3397ZM10 8.99359C10.4583 8.99359 10.8507 8.8304 11.1771 8.50401C11.5035 8.17762 11.6667 7.78526 11.6667 7.32692C11.6667 6.86859 11.5035 6.47623 11.1771 6.14984C10.8507 5.82345 10.4583 5.66026 10 5.66026C9.54167 5.66026 9.14931 5.82345 8.82292 6.14984C8.49653 6.47623 8.33334 6.86859 8.33334 7.32692C8.33334 7.78526 8.49653 8.17762 8.82292 8.50401C9.14931 8.8304 9.54167 8.99359 10 8.99359Z" fill="white"/>
</g>
</svg>
