<svg width="20" height="21" viewBox="0 0 20 21" fill="none" xmlns="http://www.w3.org/2000/svg">
<g id="Icon/ Support">
<path id="Vector" d="M9.88463 19.5V18H17.1923C17.2756 18 17.3477 17.9743 17.4086 17.9231C17.4695 17.8718 17.5 17.8045 17.5 17.7211V10.7269C17.5 8.81534 16.816 7.20605 15.4481 5.899C14.0801 4.59197 12.4307 3.93845 10.5 3.93845C8.56921 3.93845 6.91985 4.59197 5.5519 5.899C4.18395 7.20605 3.49998 8.81534 3.49998 10.7269V16.6153H2.75C2.27052 16.6153 1.85898 16.4483 1.5154 16.1144C1.1718 15.7804 1 15.3737 1 14.8942V12.9519C1 12.6275 1.09231 12.3304 1.27693 12.0606C1.46154 11.7907 1.70257 11.5737 2 11.4096L2.04618 10.1327C2.12821 9.04423 2.41089 8.0359 2.89423 7.1077C3.37756 6.17948 3.99743 5.37147 4.75383 4.68365C5.51024 3.99583 6.38332 3.45994 7.37305 3.07598C8.3628 2.69199 9.40511 2.5 10.5 2.5C11.5948 2.5 12.6346 2.69199 13.6192 3.07598C14.6038 3.45994 15.4769 3.99328 16.2384 4.67598C17 5.35866 17.6198 6.1641 18.098 7.0923C18.5762 8.0205 18.8615 9.02883 18.9538 10.1173L19 11.3692C19.291 11.5064 19.5304 11.7025 19.7182 11.9577C19.906 12.2128 20 12.4974 20 12.8115V15.0442C20 15.3583 19.906 15.6429 19.7182 15.898C19.5304 16.1532 19.291 16.3493 19 16.4865V17.7211C19 18.2134 18.8233 18.633 18.4701 18.9798C18.1169 19.3266 17.691 19.5 17.1923 19.5H9.88463ZM7.6923 12.7692C7.44743 12.7692 7.23878 12.6862 7.06635 12.5202C6.89392 12.3541 6.8077 12.1487 6.8077 11.9038C6.8077 11.6589 6.89392 11.4519 7.06635 11.2827C7.23878 11.1134 7.44743 11.0288 7.6923 11.0288C7.93717 11.0288 8.14582 11.1134 8.31825 11.2827C8.49068 11.4519 8.5769 11.6589 8.5769 11.9038C8.5769 12.1487 8.49068 12.3541 8.31825 12.5202C8.14582 12.6862 7.93717 12.7692 7.6923 12.7692ZM13.3077 12.7692C13.0628 12.7692 12.8541 12.6862 12.6817 12.5202C12.5093 12.3541 12.423 12.1487 12.423 11.9038C12.423 11.6589 12.5093 11.4519 12.6817 11.2827C12.8541 11.1134 13.0628 11.0288 13.3077 11.0288C13.5525 11.0288 13.7612 11.1134 13.9336 11.2827C14.106 11.4519 14.1923 11.6589 14.1923 11.9038C14.1923 12.1487 14.106 12.3541 13.9336 12.5202C13.7612 12.6862 13.5525 12.7692 13.3077 12.7692ZM4.87115 11.2C4.7673 9.56792 5.27499 8.17145 6.39423 7.01055C7.51346 5.84967 8.89871 5.26923 10.55 5.26923C11.9371 5.26923 13.1612 5.69839 14.2221 6.55673C15.283 7.41504 15.9269 8.52625 16.1538 9.89035C14.7333 9.87368 13.4208 9.50061 12.2163 8.77113C11.0118 8.04164 10.0872 7.04165 9.4423 5.77115C9.18845 7.01473 8.6564 8.11408 7.84615 9.0692C7.03588 10.0243 6.04422 10.7346 4.87115 11.2Z" fill="white"/>
</g>
</svg>
